<?xml version="1.0" standalone="no"?>
<!DOCTYPE svg PUBLIC "-//W3C//DTD SVG 20010904//EN"
 "http://www.w3.org/TR/2001/REC-SVG-20010904/DTD/svg10.dtd">
<svg version="1.0" xmlns="http://www.w3.org/2000/svg"
 width="600.000000pt" height="600.000000pt" viewBox="0 0 600.000000 600.000000"
 preserveAspectRatio="xMidYMid meet">

<g transform="translate(0.000000,600.000000) scale(0.100000,-0.100000)"
fill="#000000" stroke="none">
<path d="M1070 5995 c-8 -2 -49 -9 -90 -15 -416 -68 -789 -388 -925 -794 -58
-174 -55 -42 -55 -2204 0 -1910 1 -1990 19 -2072 91 -410 399 -749 800 -880
l93 -30 2093 0 2093 0 90 29 c184 60 339 156 478 295 138 138 229 286 297 479
l32 92 0 2085 0 2085 -27 85 c-61 190 -161 355 -302 496 -168 168 -351 268
-603 331 -63 16 -220 17 -2023 19 -1075 1 -1962 1 -1970 -1z m1478 -2842 l2
-352 128 -3 127 -3 3 -157 3 -158 -130 0 -130 0 -3 -122 -3 -123 -185 0 -185
0 -3 122 -3 123 -417 2 -417 3 -3 142 -3 142 308 371 308 370 300 -2 300 -3 3
-352z m1650 342 c146 -30 260 -103 307 -198 86 -177 2 -341 -205 -397 l-45
-12 72 -18 c171 -44 251 -123 261 -258 15 -216 -142 -344 -454 -371 -66 -6
-318 -11 -561 -11 l-443 0 0 640 0 640 495 0 c407 0 510 -3 573 -15z"/>
<path d="M1957 3049 l-208 -249 211 0 210 0 0 250 c0 138 -1 250 -2 249 -2 0
-97 -112 -211 -250z"/>
<path d="M3520 3115 l0 -96 273 3 c301 3 322 7 346 67 10 24 10 35 -1 58 -26
54 -48 58 -345 61 l-273 3 0 -96z"/>
<path d="M3520 2635 l0 -95 270 0 c297 0 359 7 390 47 42 54 17 112 -57 132
-23 7 -152 11 -320 11 l-283 0 0 -95z"/>
</g>
</svg>
