<svg xmlns="http://www.w3.org/2000/svg" width="200" height="200" viewBox="0 0 400 400">
  <defs>
    <style>
      .cls-1 {
        fill-rule: evenodd;
      }
    </style>
  </defs>
  <path id="sq-alibhtty_1" data-name="sq-alibhtty 1" class="cls-1" d="M77.551,31.122h226.9c8.358,0,17.766-.905,25.086.7,8.121,1.785,15.54,3.494,22.466,6.333,5.171,2.12,9.881,5.512,14.228,8.444,17.019,11.478,26.9,26.945,32.575,49.258,2.047,8.049.748,18.987,0.748,28.147v37.3a15.688,15.688,0,0,1-11.607,10.907h-4.867c-2.968.61-6.328,0.742-8.986,1.759-10.44,4-16.414,11.482-19.1,22.87-3.46,14.692,11.493,26.916,21.342,29.906,9.265,2.813,15.741-.486,20.968,7.037,4.176,6.011,2.246,24.665,2.246,34.481v22.166q-0.186,5.628-.374,11.258c-3.375,14.038-7.2,24.922-14.6,34.833-1.795,2.4-4.518,4.387-6.365,6.685a29.121,29.121,0,0,1-5.242,5.629c-11.089,7.864-21.914,14.262-37.442,18.3-8.023,2.084-17.734,1.759-27.707,1.759H94.775c-8.113,0-17.249.9-24.337-.7-8.068-1.822-15.559-3.5-22.466-6.333-20.188-8.278-34.625-24.551-43.059-43.98C-1.646,302.761.42,278.259,0.42,257.356c0-9.533-.915-19.611,3.37-24.981,4.456-5.585,12.161-3.3,19.844-5.63,12.056-3.66,17.885-10.9,20.968-23.221a18.753,18.753,0,0,0,.374-7.037C42.47,186.023,36.636,179.415,27,175.729c-11.135-4.263-20.79.93-25.835-10.556-1.3-2.959-.749-7.973-0.749-11.962V128.582c0-11.286-1.474-24.819,1.123-34.48,7.167-26.66,22.048-44.561,45.68-55.591,5.746-2.682,12.449-4.336,19.1-5.981C69.1,31.84,75.454,32.355,77.551,31.122Zm119.441,98.515-4.493,1.408a17.229,17.229,0,0,0-8.612,10.2c-2.982,9.89,7.716,21.712,19.1,19,9.906-2.362,18.093-13.558,10.858-23.926C210.619,131.705,205.426,129.479,196.992,129.637Zm-52.045,35.184a1.979,1.979,0,0,1-1.123.352c-2.9,2.695-4.588,3.328-4.493,9.148,2.189,2.142,2.689,4.405,6.365,5.278h25.835c5.132,0,9.129-.373,10.484,3.166,2.179,2.57,1.783,12.594.749,16.537q-4.68,24.1-9.36,48.2-0.375,2.991-.749,5.981c-1.336,5.107-3.7,13.488,2.246,15.481,2.206,1.992,6.226.641,8.612,0,6.069-9.137,6.241-25.435,9.361-37.3,1.561-5.937.862-14.112,8.611-14.073,1.109,1.654,2.866,2.979,3.745,4.925,1.292,2.862.945,5.747,1.872,9.148,2.06,7.556,2.827,16.35,4.867,23.925,1.547,5.742.351,13.011,6.74,14.074,1.935,1.3,4.667.15,6.739-.352,0.972-1.323,2.735-2.3,3.37-3.87,1.027-2.542-1.382-15.161-2.246-18.3-3.892-14.12-4.612-29.851-8.612-43.98-1.681-5.938-3.194-20.917,2.621-22.87,1.771-1.407,7.415-.7,10.484-0.7,8.727,0,19.213.442,26.209-1.056a30.764,30.764,0,0,1,3.37-4.222c0.179-4.167-.606-7.461-3.744-8.444-1.7-1.42-5.4-1.055-8.612-1.056H144.947Z"/>
</svg>
