<svg xmlns="http://www.w3.org/2000/svg" width="200" height="200" viewBox="0 0 400 400">
  <defs>
    <style>
      .cls-1 {
        fill-rule: evenodd;
      }
    </style>
  </defs>
  <path id="sq-cyborg_1" data-name="sq-cyborg 1" class="cls-1" d="M77.552,20.212h226.9c8.358,0,17.766-.964,25.086.749,8.122,1.9,15.54,3.719,22.466,6.742,5.171,2.257,9.881,5.868,14.228,8.989,17.019,12.22,26.9,28.685,32.575,52.438,2.047,8.569.748,20.213,0.748,29.965v39.7a16.149,16.149,0,0,1-11.607,11.611h-4.867c-2.968.649-6.328,0.789-8.986,1.873-10.44,4.254-16.414,12.223-19.1,24.346-3.46,15.641,11.493,28.654,21.342,31.837,9.265,3,15.741-.518,20.968,7.492,4.176,6.4,2.246,26.257,2.246,36.706v23.6q-0.186,5.992-.374,11.986c-3.375,14.944-7.2,26.531-14.6,37.081-1.795,2.558-4.518,4.671-6.365,7.117-1.542,2.043-3.225,4.47-5.242,5.993-11.089,8.372-21.914,15.182-37.442,19.477-8.023,2.219-17.734,1.872-27.707,1.873H94.776c-8.113,0-17.249.955-24.337-.749-8.068-1.94-15.558-3.728-22.465-6.742-20.188-8.813-34.625-26.137-43.059-46.82C-1.645,309.39.421,283.306,0.421,261.053c0-10.148-.915-20.877,3.37-26.594,4.456-5.945,12.161-3.509,19.844-5.993,12.056-3.9,17.885-11.6,20.968-24.72a21.224,21.224,0,0,0,.374-7.492c-2.506-11.14-8.34-18.174-17.972-22.1-11.135-4.538-20.79.99-25.835-11.237-1.3-3.151-.749-8.488-0.749-12.735V123.965c0-12.014-1.474-26.422,1.123-36.707,7.167-28.381,22.048-47.438,45.68-59.18,5.746-2.855,12.449-4.616,19.1-6.367C69.1,20.977,75.455,21.525,77.552,20.212ZM196.993,152.057c-2.506,1.438-7.024.023-10.109,0.749-6.566,1.544-11.586,1.663-17.973,3.745a114.6,114.6,0,0,0-47.177,28.841c-3.507,3.51-10.792,10.127-12.356,14.983,2.682,1.814,7.912,9.45,10.11,12.36,1.713,2.268,4.446,4.26,6.739,5.993L131.1,223.6c6.644,4.972,14.239,10.358,22.091,13.859,8.294,3.7,17.389,6.127,26.958,8.615,5.216,1.356,20.055,2.43,25.835,1.123h5.242c6.278-1.435,12.5-1.467,18.347-3.371,18.949-6.171,30.134-13.723,44.181-24.346,6.764-5.115,10.74-13.323,16.849-19.1a1.29,1.29,0,0,0-.374-0.75c-2.006-5.523-13.61-16.667-18.347-20.226-3.662-2.752-6.972-6.406-10.858-8.989C244.442,159.393,224.255,152.267,196.993,152.057Zm-2.247,13.109H205.23c12.472,2.974,22.435,9.8,26.959,20.6,10.18,24.315-7.066,44.09-25.836,48.692-5.715,1.4-12.668-.109-16.849-1.5-14.43-4.793-29.829-21.244-23.214-42.7,2.956-9.584,10.053-18.282,18.721-22.1C187.818,166.927,192.141,166.884,194.746,165.166Zm-35.2,8.24c1.215,0.311.572-.183,1.123,0.75-6.966,4.929-10.057,27.9-6.365,39.328,1.553,4.807,4.877,8.657,6.365,13.11h-0.749c-3.23-2.864-8.309-4.04-11.981-6.368-5.584-3.539-9.995-8.553-14.977-12.36-2.5-1.91-6.441-5.059-7.489-8.241h0.375c1.253-3.4,5.479-6.53,8.237-8.614l5.242-5.244c4.106-2.982,8.445-6,12.73-8.615C154.456,175.692,157.585,175.273,159.551,173.406Zm80.126,0c9.043,2.252,22.091,13.113,28.082,19.1,2.1,2.1,6.344,4.692,6.739,8.24-3.3,2.159-5.119,6.257-8.237,8.615-7.114,5.381-17.3,14.686-26.584,17.23V225.47c6.71-5.194,9.654-27.676,5.991-38.954C244.144,181.823,240.92,177.871,239.677,173.406Zm-42.31,2.248c-1.332.779-2.944,0.113-3.744,1.5,8.425,2.557,7.541,16.956,1.123,20.975-5.063,3.171-12.613,1.638-16.1-1.873-1.018-1.025-.726-1.963-2.246-2.621-0.4,4.613-1.27,9.877.374,14.233,3.816,10.107,16.048,20.386,31.077,15.357a29.529,29.529,0,0,0,7.489-4.121c6.467-4.811,12.482-18.539,7.114-29.215C218.122,181.273,210.586,175.482,197.367,175.654Z"/>
</svg>
