<svg xmlns="http://www.w3.org/2000/svg" viewBox="0 0 400 400"><path fill-rule="evenodd" d="M58.143.52c-3.022 1.129-7.103 4.468-8.967 7.337-.408.629-.811 1.207-.895 1.286-.085.078-.395.689-.689 1.357-.295.668-.628 1.214-.739 1.214-.112 0-.425.579-.695 1.286-.27.707-.584 1.286-.698 1.286-.114 0-.446.932-.738 2.071-.292 1.139-.619 2.136-.726 2.214-.107.079-.476 2.008-.821 4.286-.344 2.279-.744 4.4-.888 4.714-1.357 2.965-1.553 80.611-.248 98.715.264 3.675.442 7.195 1.27 25.143.265 5.735.593 10.471.729 10.523.136.053.248.389.248.749 0 1.077.865 5.697 1.097 5.861.119.084.384.731.589 1.438.389 1.342 1.998 4.895 2.329 5.143.105.078.403.558.663 1.065.587 1.145 4.904 5.506 5.451 5.506.221 0 .582.181.802.401.464.464 2.825 1.314 3.65 1.314.309 0 .562.128.562.285 0 .368 6.967.385 7.646.019.273-.147 1.943-.486 3.711-.753 1.768-.267 3.214-.583 3.214-.702s.932-.443 2.071-.721c1.14-.277 2.329-.659 2.643-.849.315-.19 1.182-.508 1.929-.707.746-.198 1.357-.473 1.357-.61 0-.136.096-.228.214-.204.118.024.672-.16 1.23-.409.559-.25 1.363-.54 1.786-.647.424-.106.77-.29.77-.409s.611-.446 1.357-.728c.747-.282 1.422-.598 1.5-.703.079-.104 1.172-.749 2.429-1.434 1.257-.684 2.35-1.319 2.428-1.411.079-.091.654-.422 1.278-.734.624-.313 1.267-.668 1.429-.789.946-.71 3.879-2.46 4.397-2.625.336-.106.611-.294.611-.417 0-.122.514-.455 1.142-.738.629-.284 1.144-.592 1.145-.686.001-.094 1.126-.75 2.5-1.457 1.374-.707 2.563-1.358 2.641-1.446.079-.089.914-.466 1.857-.84.943-.373 1.779-.761 1.857-.863.079-.101.818-.424 1.643-.717.825-.293 1.5-.623 1.5-.733 0-.11.643-.432 1.429-.714.786-.283 1.428-.598 1.428-.7 0-.103.579-.425 1.286-.717.707-.291 1.286-.613 1.286-.714 0-.101.514-.415 1.143-.699.628-.283 1.143-.599 1.143-.701 0-.102.546-.467 1.214-.812 1.319-.681 1.403-.732 4.36-2.63 1.101-.707 2.516-1.543 3.143-1.857.627-.314 1.243-.732 1.368-.928.126-.197.364-.358.529-.358.302 0 3.691-1.983 3.957-2.316.079-.098.657-.459 1.286-.802a69.102 69.102 0 002.714-1.605c.864-.539 1.989-1.177 2.5-1.418.511-.241.929-.545.929-.676s.545-.483 1.212-.782c.666-.299 1.438-.768 1.714-1.043.276-.275.624-.5.774-.5.149 0 .842-.386 1.541-.858.698-.471 1.353-.857 1.455-.857.102 0 .34-.131.53-.291.693-.586 3.944-2.566 4.212-2.566.152 0 .276-.136.276-.302 0-.167.128-.224.286-.126.157.097.285.069.285-.061 0-.131.482-.492 1.072-.803.589-.311 1.2-.663 1.357-.783 1.19-.907 3.78-2.495 4.071-2.496.197 0 .357-.132.357-.293 0-.161.29-.405.643-.543.354-.137 1.131-.584 1.727-.993.597-.408 1.191-.743 1.322-.743s.406-.202.611-.449c.206-.247.882-.709 1.504-1.026.622-.318 1.394-.823 1.716-1.122.322-.3.758-.546.969-.546.211 0 .458-.192.548-.428.09-.236.282-.429.425-.429.232 0 1.428-.737 3.243-2 1.677-1.167 2.611-1.712 2.935-1.713.197-.001.357-.127.357-.281 0-.154.507-.538 1.127-.854 1.146-.585 2.848-1.66 3.866-2.442.31-.238.985-.585 1.5-.772.515-.186.936-.438.936-.559 0-.122.416-.436.924-.699 1.402-.725 5.777-3.603 5.886-3.872.052-.13.25-.236.439-.236s.789-.381 1.333-.846c.544-.465 1.149-.851 1.344-.857.195-.006.515-.269.712-.583.196-.314.473-.571.614-.571.224 0 2.572-1.89 3.906-3.143.25-.236.96-.897 1.577-1.468a23.279 23.279 0 001.979-2.117 46.04 46.04 0 011.469-1.754c.336-.372.77-1.059.963-1.526.194-.467.456-.85.582-.85.127 0 .507-.737.844-1.639.338-.902.765-1.821.949-2.044.425-.511.47-8.528.05-8.827-.157-.112-.595-1.136-.973-2.275-.378-1.14-.776-2.072-.885-2.072-.109 0-.43-.514-.713-1.143-.283-.628-.597-1.142-.696-1.142-.099 0-.419-.404-.71-.897-.292-.493-.737-1.128-.991-1.411a58.83 58.83 0 01-1.317-1.564c-1.572-1.924-4.463-4.705-6.816-6.556a192.21 192.21 0 01-2.764-2.202c-.527-.447-4.398-3.102-5.16-3.539a7.845 7.845 0 01-1.115-.83c-.316-.285-.576-.402-.578-.26-.003.142-.099.116-.215-.059-.115-.174-.627-.531-1.138-.793-.511-.261-.93-.569-.932-.682-.002-.114-.516-.453-1.143-.753-.626-.301-1.139-.64-1.139-.754 0-.114-.45-.42-1-.681-.55-.261-1-.597-1-.747 0-.15-.142-.272-.316-.272-.174 0-.887-.386-1.586-.858-.698-.471-1.368-.857-1.487-.857-.12 0-.481-.245-.803-.545-.322-.3-1.15-.831-1.84-1.181-.689-.35-1.318-.73-1.397-.844-.078-.114-.586-.435-1.129-.713-.542-.278-1.162-.681-1.377-.897-.216-.215-.551-.391-.746-.391-.195 0-.607-.225-.916-.5-.309-.275-1.073-.756-1.697-1.069-.624-.313-1.199-.648-1.278-.746-.078-.097-.569-.42-1.091-.717s-1.55-.888-2.286-1.315c-.735-.426-1.98-1.118-2.766-1.537-.785-.419-1.492-.842-1.571-.939-.079-.098-.657-.434-1.286-.749-.628-.314-1.271-.672-1.428-.795-.614-.481-3.613-2.179-4.149-2.349-.311-.099-.566-.28-.566-.403s-.546-.466-1.214-.762c-1.154-.513-2.833-1.507-3.541-2.098-.18-.15-.405-.195-.5-.099-.095.095-.173.032-.173-.141s-.255-.395-.566-.494c-.526-.167-3.495-1.845-4.156-2.349-.162-.123-.805-.481-1.429-.795-.624-.315-1.263-.674-1.421-.798-.531-.422-3.424-2.244-4-2.52-.314-.15-1.174-.623-1.912-1.049-3.94-2.28-8.165-4.583-8.73-4.758-.354-.11-.643-.319-.643-.466 0-.147-.143-.266-.318-.266-.175 0-2.144-.9-4.377-2-2.232-1.1-4.2-2-4.373-2-.172 0-.356-.097-.408-.215-.053-.118-1.896-1.111-4.096-2.205-2.2-1.095-4.064-2.067-4.143-2.159-.078-.092-.592-.346-1.142-.563-.55-.217-1.965-.919-3.143-1.561-2.599-1.415-6.194-3.156-7.072-3.425-.353-.108-.643-.317-.643-.463 0-.147-.134-.267-.297-.267-.164 0-1.096-.364-2.072-.81a66.13 66.13 0 00-2.773-1.198c-.55-.213-1.065-.473-1.143-.577-.079-.104-1.074-.475-2.212-.825-1.138-.349-2.134-.741-2.213-.87-.08-.128-.82-.39-1.646-.58-.825-.191-1.763-.51-2.083-.71-.321-.2-1.606-.59-2.857-.866-1.251-.276-2.339-.59-2.418-.698C74.077.369 60.538-.374 58.143.52m180.286 101.245c-.786.141-1.815.425-2.286.631-.472.207-1.302.55-1.845.763-1.063.418-1.433.697-3.084 2.329-1.67 1.651-2.184 2.321-2.763 3.605-.296.656-.621 1.193-.724 1.193-.102 0-.42.675-.707 1.5s-.678 1.757-.869 2.071c-.191.314-.58 1.536-.864 2.714-.284 1.179-.604 2.208-.71 2.286-.216.16-1.148 5.583-1.148 6.678 0 .387-.114.746-.254.798-.878.331-1.025 8.937-1.029 60.152-.002 40.575-.077 51.274-.36 51.558-.456.456-.526 24.962-.072 25.243.157.097.286.875.286 1.728 0 2.206.866 10.241 1.123 10.414.117.079.376.979.574 2.001.507 2.617 2.563 6.85 4.053 8.345.268.269.659.722.869 1.008.89 1.211 3.66 3.172 5.952 4.213.55.249 1.579.733 2.286 1.074 1.734.836 7.292 1.062 9.857.401 4.349-1.12 7.188-1.941 7.683-2.22.297-.167 1.197-.499 2-.737.803-.238 1.524-.523 1.603-.633.079-.111.882-.43 1.786-.71.903-.28 1.643-.615 1.643-.745s.417-.327.928-.436c.511-.11 1.636-.568 2.5-1.019.864-.451 2.472-1.245 3.572-1.765 1.1-.521 2.321-1.151 2.714-1.402.393-.25 1.196-.624 1.786-.829.589-.206 1.071-.46 1.071-.564 0-.104.607-.421 1.349-.705.742-.283 1.481-.63 1.643-.771.331-.289 2.355-1.388 3.865-2.099.55-.259 1.064-.564 1.143-.679.079-.115.754-.439 1.5-.721s1.357-.624 1.357-.76c0-.135.097-.225.214-.2.118.026.836-.231 1.596-.571.759-.34 1.498-.618 1.642-.618a.267.267 0 00.262-.271c0-.15.708-.494 1.572-.767.864-.272 1.571-.59 1.571-.706 0-.116.672-.434 1.494-.706.821-.273 1.666-.669 1.877-.881.212-.211.501-.384.643-.384.143 0 1.221-.45 2.395-1 1.175-.55 2.271-1 2.435-1 .165 0 .299-.104.299-.232 0-.127.611-.514 1.357-.858 1.431-.66 1.619-.766 3.996-2.257.822-.516 1.617-.938 1.765-.938.149 0 .446-.176.661-.392.216-.215.836-.619 1.378-.897.542-.278 1.05-.599 1.129-.713.078-.114.657-.49 1.286-.836 1.272-.7 2.68-1.553 4.159-2.518.541-.353 1.144-.643 1.341-.643.196-.001.357-.133.357-.293 0-.161.353-.444.785-.631.433-.186 1.324-.697 1.98-1.136.657-.439 1.317-.798 1.465-.798.149 0 .433-.196.631-.434.198-.239.825-.653 1.392-.919.568-.267 1.282-.715 1.586-.995.305-.28.714-.51.908-.51.195 0 .525-.168.732-.373.208-.205.824-.623 1.369-.928.546-.306 1.245-.781 1.554-1.056.31-.275.676-.5.814-.5.139 0 .79-.368 1.447-.818.656-.45 1.483-.908 1.837-1.019.353-.111.643-.292.643-.403 0-.111.482-.455 1.071-.766s1.321-.79 1.625-1.065c.305-.275.714-.5.908-.5.195 0 .525-.168.732-.373.208-.206.824-.623 1.369-.929.546-.305 1.124-.654 1.286-.775.956-.715 3.881-2.461 4.398-2.625.336-.107.611-.284.611-.395 0-.111.482-.455 1.071-.764s1.136-.643 1.214-.741c.079-.098.701-.485 1.382-.86 2.641-1.452 2.958-1.641 3.424-2.035.264-.224.93-.625 1.48-.892 1.07-.518 1.457-.744 3.371-1.968.676-.432 1.306-.786 1.399-.786.094 0 .849-.45 1.677-1 .829-.55 1.646-1 1.816-1 .17 0 .308-.123.308-.272 0-.15.45-.486 1-.747s1-.574 1-.695c0-.12.225-.295.5-.387.522-.175 1.275-.641 2.047-1.267.249-.202 1.803-1.432 3.453-2.733 1.65-1.301 3.436-2.802 3.969-3.337 1.511-1.516 4.248-4.755 4.629-5.479.19-.36.437-.719.548-.797.112-.079.417-.561.679-1.072.262-.51.576-.928.698-.928s.453-.643.735-1.429c.283-.786.609-1.428.726-1.428.116 0 .447-.804.736-1.786.288-.982.639-1.939.78-2.126 1.337-1.774 1.317-14.204-.026-15.907-.14-.179-.475-.999-.744-1.824-.27-.825-.591-1.5-.714-1.5s-.445-.579-.715-1.286c-.27-.707-.581-1.286-.691-1.286-.11 0-.446-.418-.746-.928-.3-.511-.682-1.078-.848-1.26a75.632 75.632 0 01-1.301-1.543c-2.436-2.948-10.985-10.554-11.864-10.554-.108 0-.545-.29-.97-.643-.426-.354-1.136-.9-1.577-1.215-3.195-2.273-3.781-2.701-4.168-3.043-.239-.212-.914-.639-1.5-.95-.585-.311-1.064-.644-1.064-.741 0-.097-.45-.418-1-.714s-1-.631-1-.744c0-.113-.306-.373-.68-.578-.373-.205-1.423-.887-2.333-1.515a151.516 151.516 0 00-2.106-1.438c-.249-.162-1.211-.805-2.137-1.428a77.93 77.93 0 00-2.571-1.667c-.488-.292-.952-.632-1.03-.754-.079-.122-.69-.506-1.357-.854-.668-.347-1.215-.747-1.215-.888 0-.141-.143-.257-.319-.257-.175 0-.931-.45-1.681-1-.749-.55-1.433-1-1.52-1-.14 0-4.466-2.792-5.194-3.352-.157-.121-.768-.474-1.357-.784-.589-.311-1.072-.645-1.072-.743 0-.097-.514-.409-1.142-.692-.629-.284-1.143-.602-1.143-.707 0-.106-.565-.474-1.255-.819-.69-.344-1.412-.817-1.606-1.05-.194-.234-.458-.424-.589-.424-.13 0-.807-.386-1.506-.858-.698-.471-1.341-.857-1.429-.857-.087 0-.73-.385-1.428-.857-.699-.471-1.402-.857-1.562-.857a.437.437 0 01-.387-.256c-.097-.26-1.183-.951-3.238-2.061-.629-.339-1.207-.706-1.286-.816-.079-.109-.786-.51-1.571-.89-.786-.38-1.493-.768-1.572-.863-.078-.095-.657-.412-1.286-.705-.628-.293-1.271-.641-1.428-.772-.349-.292-1.847-1.109-3.572-1.949-.707-.344-1.35-.713-1.428-.82-.079-.106-.721-.421-1.428-.699-.707-.279-1.349-.595-1.428-.703-.079-.108-.691-.437-1.358-.732-.668-.294-1.215-.644-1.215-.777 0-.134-.096-.223-.214-.198-.271.056-3.023-1.201-3.214-1.469-.079-.11-.754-.43-1.5-.712-.747-.282-1.357-.598-1.357-.703 0-.105-.643-.422-1.429-.704-.786-.283-1.429-.598-1.43-.7 0-.102-.579-.423-1.285-.714-.707-.29-1.285-.626-1.285-.746 0-.121-.611-.452-1.357-.737s-1.527-.689-1.735-.896c-.207-.208-.544-.378-.747-.378-.203 0-.708-.266-1.122-.592-.415-.326-.755-.487-.758-.357-.002.129-.098.088-.214-.09-.115-.179-.66-.54-1.21-.801a39.634 39.634 0 01-2.428-1.317 44.915 44.915 0 00-2.704-1.453c-.701-.337-1.442-.78-1.646-.984-.204-.204-.819-.533-1.368-.732-.548-.198-.997-.445-.997-.55 0-.104-.578-.41-1.285-.68-.708-.27-1.286-.609-1.286-.753 0-.144-.097-.236-.214-.204-.118.033-.842-.225-1.608-.571-.767-.347-1.506-.63-1.643-.63s-.249-.125-.249-.278c0-.153-.708-.483-1.572-.735-.864-.251-1.571-.55-1.571-.665 0-.115-.836-.448-1.857-.74-1.022-.292-1.858-.63-1.858-.752 0-.121-.996-.44-2.214-.709-1.218-.268-2.278-.577-2.357-.686-.165-.229-4.688-1.15-5.643-1.15-.353 0-.643-.116-.643-.259 0-.142-1.253-.337-2.785-.434-1.533-.096-3.3-.218-3.929-.272-.629-.054-1.786.018-2.571.159M57.857 214.171c-.786.252-1.493.554-1.571.67-.079.116-.746.439-1.482.717-.736.278-1.407.684-1.491.902-.084.219-.303.397-.487.397-.875 0-5.316 5.34-6.72 8.079-.259.507-.557.985-.661 1.064-.104.079-.427.786-.719 1.571-.292.786-.629 1.495-.748 1.575-.281.188-1.613 5.154-2.22 8.283-.96 4.939-.445 135.713.539 136.696.151.151.274.619.274 1.039 0 1.208 1.177 7.82 1.42 7.979.12.078.442.914.714 1.857.272.943.582 1.779.688 1.857.107.079.446.722.753 1.429.307.707.722 1.456.922 1.665.2.209.502.637.67.951.629 1.175 3.465 4.241 3.923 4.241.176 0 .441.229.591.509.15.28.733.689 1.296.91.563.221 1.023.496 1.023.611 0 .115.675.432 1.5.703.825.272 1.565.587 1.643.701 1.096 1.59 15.669 1.594 16.857.005.079-.105 1.164-.412 2.412-.683 1.248-.27 2.405-.603 2.571-.741.167-.137 1.139-.466 2.16-.73 1.021-.264 1.921-.578 2-.698.079-.12 1.075-.505 2.215-.855 1.139-.35 2.071-.731 2.071-.847 0-.115.707-.432 1.571-.705.865-.272 1.572-.617 1.572-.766 0-.149.141-.271.313-.271.331 0 5.156-2.283 5.401-2.556.079-.087.722-.451 1.429-.808a63.701 63.701 0 002.714-1.48 45.285 45.285 0 012-1.108c.888-.43 3.958-2.279 4.364-2.627.2-.172.788-.491 1.308-.708.52-.217 1.094-.574 1.275-.793.182-.218.847-.568 1.477-.776.631-.208 1.147-.469 1.147-.58 0-.11.611-.432 1.358-.714.746-.281 1.422-.61 1.502-.73.08-.119.851-.495 1.712-.835.861-.339 1.631-.703 1.711-.808.081-.105.725-.484 1.432-.841a63.763 63.763 0 002.714-1.481c.786-.457 1.75-.998 2.143-1.202.393-.204 1.216-.727 1.828-1.162.613-.435 1.278-.791 1.477-.791.199 0 .404-.101.457-.225.052-.124 1.124-.825 2.381-1.559 1.257-.734 2.449-1.476 2.649-1.65.2-.173.789-.493 1.308-.71.52-.217 1.112-.595 1.315-.84.203-.245.491-.445.64-.445.149 0 .831-.386 1.516-.857s1.374-.857 1.531-.857c.157 0 .464-.178.681-.396.218-.217.902-.668 1.52-1.003 1.197-.646 1.439-.792 3.724-2.244.803-.511 1.608-.929 1.788-.929.18 0 .328-.096.328-.214s.61-.533 1.357-.922c.746-.389 1.421-.788 1.5-.888.078-.1.557-.394 1.063-.653.968-.496 2.84-1.685 3.422-2.173.189-.158.828-.514 1.42-.79.593-.276 1.306-.727 1.586-1.002s.657-.5.839-.5c.182 0 .751-.322 1.266-.714.515-.393 1.266-.84 1.67-.993.404-.154.734-.392.734-.529s.578-.488 1.286-.78c.707-.292 1.285-.634 1.285-.762 0-.127.45-.446 1-.709.55-.262 1-.581 1-.709s.134-.233.298-.233c.282 0 3.469-1.943 4.172-2.544.18-.153.384-.221.454-.151s.361-.131.646-.446c.285-.315.672-.573.859-.573.187 0 .573-.257.857-.572.284-.314.641-.571.792-.571.151 0 .887-.45 1.637-1 .749-.55 1.505-1 1.681-1 .175 0 .319-.132.319-.293 0-.161.289-.406.642-.545.61-.239 7.437-4.659 8.635-5.59.309-.24.92-.595 1.357-.789.437-.193.794-.445.794-.56 0-.115.418-.422.929-.683.51-.261 1.031-.65 1.157-.865.125-.214.369-.389.542-.389.172 0 .862-.45 1.534-1 .671-.55 1.295-1 1.386-1 .179 0 .915-.608 1.992-1.643.368-.354.773-.643.901-.643.541 0 8.301-7.759 8.553-8.551.103-.326.309-.592.459-.592.149 0 .485-.45.748-1 .262-.55.566-1 .675-1 .109 0 .365-.418.569-.929a84.99 84.99 0 011.074-2.497c1.2-2.676 1.155-8.703-.079-10.691-.204-.329-.597-1.208-.873-1.954-.276-.747-.593-1.358-.705-1.358-.112 0-.436-.514-.719-1.142-.283-.629-.597-1.143-.696-1.143-.099 0-.412-.392-.695-.872-.595-1.006-.791-1.228-4.204-4.771-1.401-1.454-2.629-2.643-2.729-2.643-.1 0-.458-.289-.795-.643-.834-.875-2.322-1.978-4.952-3.672-.511-.329-.929-.714-.929-.856 0-.142-.174-.258-.386-.258-.212 0-.918-.385-1.569-.857-.65-.471-1.257-.857-1.348-.857-.091 0-.726-.386-1.411-.857s-1.364-.857-1.507-.857c-.144 0-.495-.257-.779-.572-.284-.314-.639-.571-.789-.571-.149 0-.843-.386-1.541-.857-.699-.472-1.368-.857-1.488-.857-.119 0-.466-.229-.771-.51-.305-.28-1.036-.736-1.625-1.013-.59-.277-1.072-.618-1.072-.757s-.289-.344-.643-.454c-.353-.111-1.18-.57-1.837-1.02-.657-.45-1.316-.818-1.465-.818-.149 0-.436-.199-.638-.442-.202-.244-.925-.697-1.606-1.008-.682-.31-1.239-.681-1.239-.823 0-.143-.29-.35-.643-.461-.354-.111-1.157-.548-1.786-.971-.628-.423-1.368-.852-1.643-.952-.275-.1-.5-.306-.5-.457 0-.152-.289-.366-.643-.477-.353-.111-1.18-.569-1.837-1.019-.657-.45-1.261-.818-1.343-.818-.081 0-.72-.386-1.418-.857-.699-.472-1.392-.858-1.542-.858-.149 0-.504-.257-.788-.571-.285-.314-.619-.571-.744-.571s-.799-.386-1.498-.858c-.698-.471-1.341-.857-1.428-.857-.087 0-.73-.385-1.429-.857-.698-.471-1.412-.857-1.585-.857-.174 0-.316-.114-.316-.253s-.418-.469-.929-.733c-.51-.264-1.635-.918-2.5-1.452a55.548 55.548 0 00-2.5-1.462c-.51-.271-.928-.604-.928-.741 0-.138-.129-.17-.286-.073-.157.097-.286.053-.286-.098s-.361-.401-.803-.555c-.441-.154-.988-.461-1.214-.682-.226-.22-.888-.625-1.471-.898-.582-.273-1.134-.619-1.226-.767-.092-.149-.644-.495-1.226-.769-.583-.274-1.309-.728-1.614-1.008-.304-.28-.706-.509-.893-.509-.187 0-.505-.199-.707-.443-.202-.243-.917-.693-1.589-.999-.672-.306-1.305-.691-1.407-.855-.101-.164-.687-.5-1.303-.746-.615-.246-1.118-.543-1.118-.659 0-.116-.514-.443-1.143-.727-.629-.283-1.143-.604-1.143-.714 0-.109-.514-.431-1.143-.714-.628-.284-1.143-.605-1.143-.714 0-.11-.514-.431-1.142-.715-.629-.283-1.143-.601-1.143-.706 0-.106-.643-.482-1.429-.837-.786-.356-1.428-.764-1.428-.909 0-.144-.176-.262-.39-.262-.215 0-.712-.253-1.105-.562-.393-.309-.796-.481-.896-.381-.099.1-.181.044-.181-.124 0-.168-.353-.448-.786-.623-.432-.175-1.557-.763-2.5-1.307a55.529 55.529 0 00-3-1.608c-.707-.341-1.35-.709-1.428-.819-.079-.11-.754-.431-1.5-.712-.747-.282-1.357-.624-1.357-.76s-.143-.247-.317-.247c-.357 0-5.748-2.594-5.969-2.873-.079-.098-.754-.41-1.5-.692s-1.357-.598-1.357-.703c0-.105-.643-.422-1.429-.704-.785-.283-1.428-.61-1.428-.727 0-.118-.547-.456-1.215-.752-.667-.296-1.384-.702-1.591-.901-.208-.199-.514-.362-.68-.362-.165 0-1.281-.544-2.479-1.209-1.198-.665-2.275-1.179-2.392-1.143-.118.036-.215-.054-.215-.2 0-.147-.289-.357-.643-.468-.353-.111-1.414-.552-2.357-.98-.943-.429-2.035-.878-2.428-1-.393-.121-.779-.305-.857-.41-.176-.233-3.057-1.162-3.605-1.162-.217 0-.395-.104-.395-.231 0-.128-1.061-.468-2.358-.756-1.296-.289-2.485-.62-2.642-.736-1.139-.843-12.424-1.367-14.572-.677"/></svg>