<svg id="svg" xmlns="http://www.w3.org/2000/svg" xmlns:xlink="http://www.w3.org/1999/xlink" width="400" height="400" viewBox="0, 0, 400,400"><g id="svgg"><path id="path0" d="M58.143 0.520 C 55.121 1.649,51.040 4.988,49.176 7.857 C 48.768 8.486,48.365 9.064,48.281 9.143 C 48.196 9.221,47.886 9.832,47.592 10.500 C 47.297 11.168,46.964 11.714,46.853 11.714 C 46.741 11.714,46.428 12.293,46.158 13.000 C 45.888 13.707,45.574 14.286,45.460 14.286 C 45.346 14.286,45.014 15.218,44.722 16.357 C 44.430 17.496,44.103 18.493,43.996 18.571 C 43.889 18.650,43.520 20.579,43.175 22.857 C 42.831 25.136,42.431 27.257,42.287 27.571 C 40.930 30.536,40.734 108.182,42.039 126.286 C 42.303 129.961,42.481 133.481,43.309 151.429 C 43.574 157.164,43.902 161.900,44.038 161.952 C 44.174 162.005,44.286 162.341,44.286 162.701 C 44.286 163.778,45.151 168.398,45.383 168.562 C 45.502 168.646,45.767 169.293,45.972 170.000 C 46.361 171.342,47.970 174.895,48.301 175.143 C 48.406 175.221,48.704 175.701,48.964 176.208 C 49.551 177.353,53.868 181.714,54.415 181.714 C 54.636 181.714,54.997 181.895,55.217 182.115 C 55.681 182.579,58.042 183.429,58.867 183.429 C 59.176 183.429,59.429 183.557,59.429 183.714 C 59.429 184.082,66.396 184.099,67.075 183.733 C 67.348 183.586,69.018 183.247,70.786 182.980 C 72.554 182.713,74.000 182.397,74.000 182.278 C 74.000 182.159,74.932 181.835,76.071 181.557 C 77.211 181.280,78.400 180.898,78.714 180.708 C 79.029 180.518,79.896 180.200,80.643 180.001 C 81.389 179.803,82.000 179.528,82.000 179.391 C 82.000 179.255,82.096 179.163,82.214 179.187 C 82.332 179.211,82.886 179.027,83.444 178.778 C 84.003 178.528,84.807 178.238,85.230 178.131 C 85.654 178.025,86.000 177.841,86.000 177.722 C 86.000 177.603,86.611 177.276,87.357 176.994 C 88.104 176.712,88.779 176.396,88.857 176.291 C 88.936 176.187,90.029 175.542,91.286 174.857 C 92.543 174.173,93.636 173.538,93.714 173.446 C 93.793 173.355,94.368 173.024,94.992 172.712 C 95.616 172.399,96.259 172.044,96.421 171.923 C 97.367 171.213,100.300 169.463,100.818 169.298 C 101.154 169.192,101.429 169.004,101.429 168.881 C 101.429 168.759,101.943 168.426,102.571 168.143 C 103.200 167.859,103.715 167.551,103.716 167.457 C 103.717 167.363,104.842 166.707,106.216 166.000 C 107.590 165.293,108.779 164.642,108.857 164.554 C 108.936 164.465,109.771 164.088,110.714 163.714 C 111.657 163.341,112.493 162.953,112.571 162.851 C 112.650 162.750,113.389 162.427,114.214 162.134 C 115.039 161.841,115.714 161.511,115.714 161.401 C 115.714 161.291,116.357 160.969,117.143 160.687 C 117.929 160.404,118.571 160.089,118.571 159.987 C 118.571 159.884,119.150 159.562,119.857 159.270 C 120.564 158.979,121.143 158.657,121.143 158.556 C 121.143 158.455,121.657 158.141,122.286 157.857 C 122.914 157.574,123.429 157.258,123.429 157.156 C 123.429 157.054,123.975 156.689,124.643 156.344 C 125.962 155.663,126.046 155.612,129.003 153.714 C 130.104 153.007,131.519 152.171,132.146 151.857 C 132.773 151.543,133.389 151.125,133.514 150.929 C 133.640 150.732,133.878 150.571,134.043 150.571 C 134.345 150.571,137.734 148.588,138.000 148.255 C 138.079 148.157,138.657 147.796,139.286 147.453 C 139.914 147.109,141.136 146.387,142.000 145.848 C 142.864 145.309,143.989 144.671,144.500 144.430 C 145.011 144.189,145.429 143.885,145.429 143.754 C 145.429 143.623,145.974 143.271,146.641 142.972 C 147.307 142.673,148.079 142.204,148.355 141.929 C 148.631 141.654,148.979 141.429,149.129 141.429 C 149.278 141.429,149.971 141.043,150.670 140.571 C 151.368 140.100,152.023 139.714,152.125 139.714 C 152.227 139.714,152.465 139.583,152.655 139.423 C 153.348 138.837,156.599 136.857,156.867 136.857 C 157.019 136.857,157.143 136.721,157.143 136.555 C 157.143 136.388,157.271 136.331,157.429 136.429 C 157.586 136.526,157.714 136.498,157.714 136.368 C 157.714 136.237,158.196 135.876,158.786 135.565 C 159.375 135.254,159.986 134.902,160.143 134.782 C 161.333 133.875,163.923 132.287,164.214 132.286 C 164.411 132.286,164.571 132.154,164.571 131.993 C 164.571 131.832,164.861 131.588,165.214 131.450 C 165.568 131.313,166.345 130.866,166.941 130.457 C 167.538 130.049,168.132 129.714,168.263 129.714 C 168.394 129.714,168.669 129.512,168.874 129.265 C 169.080 129.018,169.756 128.556,170.378 128.239 C 171.000 127.921,171.772 127.416,172.094 127.117 C 172.416 126.817,172.852 126.571,173.063 126.571 C 173.274 126.571,173.521 126.379,173.611 126.143 C 173.701 125.907,173.893 125.714,174.036 125.714 C 174.268 125.714,175.464 124.977,177.279 123.714 C 178.956 122.547,179.890 122.002,180.214 122.001 C 180.411 122.000,180.571 121.874,180.571 121.720 C 180.571 121.566,181.078 121.182,181.698 120.866 C 182.844 120.281,184.546 119.206,185.564 118.424 C 185.874 118.186,186.549 117.839,187.064 117.652 C 187.579 117.466,188.000 117.214,188.000 117.093 C 188.000 116.971,188.416 116.657,188.924 116.394 C 190.326 115.669,194.701 112.791,194.810 112.522 C 194.862 112.392,195.060 112.286,195.249 112.286 C 195.438 112.286,196.038 111.905,196.582 111.440 C 197.126 110.975,197.731 110.589,197.926 110.583 C 198.121 110.577,198.441 110.314,198.638 110.000 C 198.834 109.686,199.111 109.429,199.252 109.429 C 199.476 109.429,201.824 107.539,203.158 106.286 C 203.408 106.050,204.118 105.389,204.735 104.818 C 205.352 104.246,206.243 103.293,206.714 102.701 C 207.186 102.108,207.847 101.319,208.183 100.947 C 208.519 100.575,208.953 99.888,209.146 99.421 C 209.340 98.954,209.602 98.571,209.728 98.571 C 209.855 98.571,210.235 97.834,210.572 96.932 C 210.910 96.030,211.337 95.111,211.521 94.888 C 211.946 94.377,211.991 86.360,211.571 86.061 C 211.414 85.949,210.976 84.925,210.598 83.786 C 210.220 82.646,209.822 81.714,209.713 81.714 C 209.604 81.714,209.283 81.200,209.000 80.571 C 208.717 79.943,208.403 79.429,208.304 79.429 C 208.205 79.429,207.885 79.025,207.594 78.532 C 207.302 78.039,206.857 77.404,206.603 77.121 C 206.350 76.838,205.757 76.135,205.286 75.557 C 203.714 73.633,200.823 70.852,198.470 69.001 C 197.190 67.994,195.946 67.003,195.706 66.799 C 195.179 66.352,191.308 63.697,190.546 63.260 C 190.248 63.089,189.746 62.716,189.431 62.430 C 189.115 62.145,188.855 62.028,188.853 62.170 C 188.850 62.312,188.754 62.286,188.638 62.111 C 188.523 61.937,188.011 61.580,187.500 61.318 C 186.989 61.057,186.570 60.749,186.568 60.636 C 186.566 60.522,186.052 60.183,185.425 59.883 C 184.799 59.582,184.286 59.243,184.286 59.129 C 184.286 59.015,183.836 58.709,183.286 58.448 C 182.736 58.187,182.286 57.851,182.286 57.701 C 182.286 57.551,182.144 57.429,181.970 57.429 C 181.796 57.429,181.083 57.043,180.384 56.571 C 179.686 56.100,179.016 55.714,178.897 55.714 C 178.777 55.714,178.416 55.469,178.094 55.169 C 177.772 54.869,176.944 54.338,176.254 53.988 C 175.565 53.638,174.936 53.258,174.857 53.144 C 174.779 53.030,174.271 52.709,173.728 52.431 C 173.186 52.153,172.566 51.750,172.351 51.534 C 172.135 51.319,171.800 51.143,171.605 51.143 C 171.410 51.143,170.998 50.918,170.689 50.643 C 170.380 50.368,169.616 49.887,168.992 49.574 C 168.368 49.261,167.793 48.926,167.714 48.828 C 167.636 48.731,167.145 48.408,166.623 48.111 C 166.101 47.814,165.073 47.223,164.337 46.796 C 163.602 46.370,162.357 45.678,161.571 45.259 C 160.786 44.840,160.079 44.417,160.000 44.320 C 159.921 44.222,159.343 43.886,158.714 43.571 C 158.086 43.257,157.443 42.899,157.286 42.776 C 156.672 42.295,153.673 40.597,153.137 40.427 C 152.826 40.328,152.571 40.147,152.571 40.024 C 152.571 39.901,152.025 39.558,151.357 39.262 C 150.203 38.749,148.524 37.755,147.816 37.164 C 147.636 37.014,147.411 36.969,147.316 37.065 C 147.221 37.160,147.143 37.097,147.143 36.924 C 147.143 36.751,146.888 36.529,146.577 36.430 C 146.051 36.263,143.082 34.585,142.421 34.081 C 142.259 33.958,141.616 33.600,140.992 33.286 C 140.368 32.971,139.729 32.612,139.571 32.488 C 139.040 32.066,136.147 30.244,135.571 29.968 C 135.257 29.818,134.397 29.345,133.659 28.919 C 129.719 26.639,125.494 24.336,124.929 24.161 C 124.575 24.051,124.286 23.842,124.286 23.695 C 124.286 23.548,124.143 23.429,123.968 23.429 C 123.793 23.429,121.824 22.529,119.591 21.429 C 117.359 20.329,115.391 19.429,115.218 19.429 C 115.046 19.429,114.862 19.332,114.810 19.214 C 114.757 19.096,112.914 18.103,110.714 17.009 C 108.514 15.914,106.650 14.942,106.571 14.850 C 106.493 14.758,105.979 14.504,105.429 14.287 C 104.879 14.070,103.464 13.368,102.286 12.726 C 99.687 11.311,96.092 9.570,95.214 9.301 C 94.861 9.193,94.571 8.984,94.571 8.838 C 94.571 8.691,94.437 8.571,94.274 8.571 C 94.110 8.571,93.178 8.207,92.202 7.761 C 91.227 7.315,89.979 6.776,89.429 6.563 C 88.879 6.350,88.364 6.090,88.286 5.986 C 88.207 5.882,87.212 5.511,86.074 5.161 C 84.936 4.812,83.940 4.420,83.861 4.291 C 83.781 4.163,83.041 3.901,82.215 3.711 C 81.390 3.520,80.452 3.201,80.132 3.001 C 79.811 2.801,78.526 2.411,77.275 2.135 C 76.024 1.859,74.936 1.545,74.857 1.437 C 74.077 0.369,60.538 -0.374,58.143 0.520 M238.429 101.765 C 237.643 101.906,236.614 102.190,236.143 102.396 C 235.671 102.603,234.841 102.946,234.298 103.159 C 233.235 103.577,232.865 103.856,231.214 105.488 C 229.544 107.139,229.030 107.809,228.451 109.093 C 228.155 109.749,227.830 110.286,227.727 110.286 C 227.625 110.286,227.307 110.961,227.020 111.786 C 226.733 112.611,226.342 113.543,226.151 113.857 C 225.960 114.171,225.571 115.393,225.287 116.571 C 225.003 117.750,224.683 118.779,224.577 118.857 C 224.361 119.017,223.429 124.440,223.429 125.535 C 223.429 125.922,223.315 126.281,223.175 126.333 C 222.297 126.664,222.150 135.270,222.146 186.485 C 222.144 227.060,222.069 237.759,221.786 238.043 C 221.330 238.499,221.260 263.005,221.714 263.286 C 221.871 263.383,222.000 264.161,222.000 265.014 C 222.000 267.220,222.866 275.255,223.123 275.428 C 223.240 275.507,223.499 276.407,223.697 277.429 C 224.204 280.046,226.260 284.279,227.750 285.774 C 228.018 286.043,228.409 286.496,228.619 286.782 C 229.509 287.993,232.279 289.954,234.571 290.995 C 235.121 291.244,236.150 291.728,236.857 292.069 C 238.591 292.905,244.149 293.131,246.714 292.470 C 251.063 291.350,253.902 290.529,254.397 290.250 C 254.694 290.083,255.594 289.751,256.397 289.513 C 257.200 289.275,257.921 288.990,258.000 288.880 C 258.079 288.769,258.882 288.450,259.786 288.170 C 260.689 287.890,261.429 287.555,261.429 287.425 C 261.429 287.295,261.846 287.098,262.357 286.989 C 262.868 286.879,263.993 286.421,264.857 285.970 C 265.721 285.519,267.329 284.725,268.429 284.205 C 269.529 283.684,270.750 283.054,271.143 282.803 C 271.536 282.553,272.339 282.179,272.929 281.974 C 273.518 281.768,274.000 281.514,274.000 281.410 C 274.000 281.306,274.607 280.989,275.349 280.705 C 276.091 280.422,276.830 280.075,276.992 279.934 C 277.323 279.645,279.347 278.546,280.857 277.835 C 281.407 277.576,281.921 277.271,282.000 277.156 C 282.079 277.041,282.754 276.717,283.500 276.435 C 284.246 276.153,284.857 275.811,284.857 275.675 C 284.857 275.540,284.954 275.450,285.071 275.475 C 285.189 275.501,285.907 275.244,286.667 274.904 C 287.426 274.564,288.165 274.286,288.309 274.286 C 288.454 274.286,288.571 274.164,288.571 274.015 C 288.571 273.865,289.279 273.521,290.143 273.248 C 291.007 272.976,291.714 272.658,291.714 272.542 C 291.714 272.426,292.386 272.108,293.208 271.836 C 294.029 271.563,294.874 271.167,295.085 270.955 C 295.297 270.744,295.586 270.571,295.728 270.571 C 295.871 270.571,296.949 270.121,298.123 269.571 C 299.298 269.021,300.394 268.571,300.558 268.571 C 300.723 268.571,300.857 268.467,300.857 268.339 C 300.857 268.212,301.468 267.825,302.214 267.481 C 303.645 266.821,303.833 266.715,306.210 265.224 C 307.032 264.708,307.827 264.286,307.975 264.286 C 308.124 264.286,308.421 264.110,308.636 263.894 C 308.852 263.679,309.472 263.275,310.014 262.997 C 310.556 262.719,311.064 262.398,311.143 262.284 C 311.221 262.170,311.800 261.794,312.429 261.448 C 313.701 260.748,315.109 259.895,316.588 258.930 C 317.129 258.577,317.732 258.287,317.929 258.287 C 318.125 258.286,318.286 258.154,318.286 257.994 C 318.286 257.833,318.639 257.550,319.071 257.363 C 319.504 257.177,320.395 256.666,321.051 256.227 C 321.708 255.788,322.368 255.429,322.516 255.429 C 322.665 255.429,322.949 255.233,323.147 254.995 C 323.345 254.756,323.972 254.342,324.539 254.076 C 325.107 253.809,325.821 253.361,326.125 253.081 C 326.430 252.801,326.839 252.571,327.033 252.571 C 327.228 252.571,327.558 252.403,327.765 252.198 C 327.973 251.993,328.589 251.575,329.134 251.270 C 329.680 250.964,330.379 250.489,330.688 250.214 C 330.998 249.939,331.364 249.714,331.502 249.714 C 331.641 249.714,332.292 249.346,332.949 248.896 C 333.605 248.446,334.432 247.988,334.786 247.877 C 335.139 247.766,335.429 247.585,335.429 247.474 C 335.429 247.363,335.911 247.019,336.500 246.708 C 337.089 246.397,337.821 245.918,338.125 245.643 C 338.430 245.368,338.839 245.143,339.033 245.143 C 339.228 245.143,339.558 244.975,339.765 244.770 C 339.973 244.564,340.589 244.147,341.134 243.841 C 341.680 243.536,342.258 243.187,342.420 243.066 C 343.376 242.351,346.301 240.605,346.818 240.441 C 347.154 240.334,347.429 240.157,347.429 240.046 C 347.429 239.935,347.911 239.591,348.500 239.282 C 349.089 238.973,349.636 238.639,349.714 238.541 C 349.793 238.443,350.415 238.056,351.096 237.681 C 353.737 236.229,354.054 236.040,354.520 235.646 C 354.784 235.422,355.450 235.021,356.000 234.754 C 357.070 234.236,357.457 234.010,359.371 232.786 C 360.047 232.354,360.677 232.000,360.770 232.000 C 360.864 232.000,361.619 231.550,362.447 231.000 C 363.276 230.450,364.093 230.000,364.263 230.000 C 364.433 230.000,364.571 229.877,364.571 229.728 C 364.571 229.578,365.021 229.242,365.571 228.981 C 366.121 228.720,366.571 228.407,366.571 228.286 C 366.571 228.166,366.796 227.991,367.071 227.899 C 367.593 227.724,368.346 227.258,369.118 226.632 C 369.367 226.430,370.921 225.200,372.571 223.899 C 374.221 222.598,376.007 221.097,376.540 220.562 C 378.051 219.046,380.788 215.807,381.169 215.083 C 381.359 214.723,381.606 214.364,381.717 214.286 C 381.829 214.207,382.134 213.725,382.396 213.214 C 382.658 212.704,382.972 212.286,383.094 212.286 C 383.216 212.286,383.547 211.643,383.829 210.857 C 384.112 210.071,384.438 209.429,384.555 209.429 C 384.671 209.429,385.002 208.625,385.291 207.643 C 385.579 206.661,385.930 205.704,386.071 205.517 C 387.408 203.743,387.388 191.313,386.045 189.610 C 385.905 189.431,385.570 188.611,385.301 187.786 C 385.031 186.961,384.710 186.286,384.587 186.286 C 384.464 186.286,384.142 185.707,383.872 185.000 C 383.602 184.293,383.291 183.714,383.181 183.714 C 383.071 183.714,382.735 183.296,382.435 182.786 C 382.135 182.275,381.753 181.708,381.587 181.526 C 381.422 181.343,380.836 180.649,380.286 179.983 C 377.850 177.035,369.301 169.429,368.422 169.429 C 368.314 169.429,367.877 169.139,367.452 168.786 C 367.026 168.432,366.316 167.886,365.875 167.571 C 362.680 165.298,362.094 164.870,361.707 164.528 C 361.468 164.316,360.793 163.889,360.207 163.578 C 359.622 163.267,359.143 162.934,359.143 162.837 C 359.143 162.740,358.693 162.419,358.143 162.123 C 357.593 161.827,357.143 161.492,357.143 161.379 C 357.143 161.266,356.837 161.006,356.463 160.801 C 356.090 160.596,355.040 159.914,354.130 159.286 C 353.221 158.657,352.273 158.010,352.024 157.848 C 351.775 157.686,350.813 157.043,349.887 156.420 C 348.961 155.796,347.804 155.046,347.316 154.753 C 346.828 154.461,346.364 154.121,346.286 153.999 C 346.207 153.877,345.596 153.493,344.929 153.145 C 344.261 152.798,343.714 152.398,343.714 152.257 C 343.714 152.116,343.571 152.000,343.395 152.000 C 343.220 152.000,342.464 151.550,341.714 151.000 C 340.965 150.450,340.281 150.000,340.194 150.000 C 340.054 150.000,335.728 147.208,335.000 146.648 C 334.843 146.527,334.232 146.174,333.643 145.864 C 333.054 145.553,332.571 145.219,332.571 145.121 C 332.571 145.024,332.057 144.712,331.429 144.429 C 330.800 144.145,330.286 143.827,330.286 143.722 C 330.286 143.616,329.721 143.248,329.031 142.903 C 328.341 142.559,327.619 142.086,327.425 141.853 C 327.231 141.619,326.967 141.429,326.836 141.429 C 326.706 141.429,326.029 141.043,325.330 140.571 C 324.632 140.100,323.989 139.714,323.901 139.714 C 323.814 139.714,323.171 139.329,322.473 138.857 C 321.774 138.386,321.071 138.000,320.911 138.000 C 320.750 138.000,320.576 137.885,320.524 137.744 C 320.427 137.484,319.341 136.793,317.286 135.683 C 316.657 135.344,316.079 134.977,316.000 134.867 C 315.921 134.758,315.214 134.357,314.429 133.977 C 313.643 133.597,312.936 133.209,312.857 133.114 C 312.779 133.019,312.200 132.702,311.571 132.409 C 310.943 132.116,310.300 131.768,310.143 131.637 C 309.794 131.345,308.296 130.528,306.571 129.688 C 305.864 129.344,305.221 128.975,305.143 128.868 C 305.064 128.762,304.422 128.447,303.715 128.169 C 303.008 127.890,302.366 127.574,302.287 127.466 C 302.208 127.358,301.596 127.029,300.929 126.734 C 300.261 126.440,299.714 126.090,299.714 125.957 C 299.714 125.823,299.618 125.734,299.500 125.759 C 299.229 125.815,296.477 124.558,296.286 124.290 C 296.207 124.180,295.532 123.860,294.786 123.578 C 294.039 123.296,293.429 122.980,293.429 122.875 C 293.429 122.770,292.786 122.453,292.000 122.171 C 291.214 121.888,290.571 121.573,290.570 121.471 C 290.570 121.369,289.991 121.048,289.285 120.757 C 288.578 120.467,288.000 120.131,288.000 120.011 C 288.000 119.890,287.389 119.559,286.643 119.274 C 285.897 118.989,285.116 118.585,284.908 118.378 C 284.701 118.170,284.364 118.000,284.161 118.000 C 283.958 118.000,283.453 117.734,283.039 117.408 C 282.624 117.082,282.284 116.921,282.281 117.051 C 282.279 117.180,282.183 117.139,282.067 116.961 C 281.952 116.782,281.407 116.421,280.857 116.160 C 280.307 115.898,279.214 115.305,278.429 114.843 C 277.643 114.381,276.426 113.727,275.725 113.390 C 275.024 113.053,274.283 112.610,274.079 112.406 C 273.875 112.202,273.260 111.873,272.711 111.674 C 272.163 111.476,271.714 111.229,271.714 111.124 C 271.714 111.020,271.136 110.714,270.429 110.444 C 269.721 110.174,269.143 109.835,269.143 109.691 C 269.143 109.547,269.046 109.455,268.929 109.487 C 268.811 109.520,268.087 109.262,267.321 108.916 C 266.554 108.569,265.815 108.286,265.678 108.286 C 265.541 108.286,265.429 108.161,265.429 108.008 C 265.429 107.855,264.721 107.525,263.857 107.273 C 262.993 107.022,262.286 106.723,262.286 106.608 C 262.286 106.493,261.450 106.160,260.429 105.868 C 259.407 105.576,258.571 105.238,258.571 105.116 C 258.571 104.995,257.575 104.676,256.357 104.407 C 255.139 104.139,254.079 103.830,254.000 103.721 C 253.835 103.492,249.312 102.571,248.357 102.571 C 248.004 102.571,247.714 102.455,247.714 102.312 C 247.714 102.170,246.461 101.975,244.929 101.878 C 243.396 101.782,241.629 101.660,241.000 101.606 C 240.371 101.552,239.214 101.624,238.429 101.765 M57.857 214.171 C 57.071 214.423,56.364 214.725,56.286 214.841 C 56.207 214.957,55.540 215.280,54.804 215.558 C 54.068 215.836,53.397 216.242,53.313 216.460 C 53.229 216.679,53.010 216.857,52.826 216.857 C 51.951 216.857,47.510 222.197,46.106 224.936 C 45.847 225.443,45.549 225.921,45.445 226.000 C 45.341 226.079,45.018 226.786,44.726 227.571 C 44.434 228.357,44.097 229.066,43.978 229.146 C 43.697 229.334,42.365 234.300,41.758 237.429 C 40.798 242.368,41.313 373.142,42.297 374.125 C 42.448 374.276,42.571 374.744,42.571 375.164 C 42.571 376.372,43.748 382.984,43.991 383.143 C 44.111 383.221,44.433 384.057,44.705 385.000 C 44.977 385.943,45.287 386.779,45.393 386.857 C 45.500 386.936,45.839 387.579,46.146 388.286 C 46.453 388.993,46.868 389.742,47.068 389.951 C 47.268 390.160,47.570 390.588,47.738 390.902 C 48.367 392.077,51.203 395.143,51.661 395.143 C 51.837 395.143,52.102 395.372,52.252 395.652 C 52.402 395.932,52.985 396.341,53.548 396.562 C 54.111 396.783,54.571 397.058,54.571 397.173 C 54.571 397.288,55.246 397.605,56.071 397.876 C 56.896 398.148,57.636 398.463,57.714 398.577 C 58.810 400.167,73.383 400.171,74.571 398.582 C 74.650 398.477,75.735 398.170,76.983 397.899 C 78.231 397.629,79.388 397.296,79.554 397.158 C 79.721 397.021,80.693 396.692,81.714 396.428 C 82.735 396.164,83.635 395.850,83.714 395.730 C 83.793 395.610,84.789 395.225,85.929 394.875 C 87.068 394.525,88.000 394.144,88.000 394.028 C 88.000 393.913,88.707 393.596,89.571 393.323 C 90.436 393.051,91.143 392.706,91.143 392.557 C 91.143 392.408,91.284 392.286,91.456 392.286 C 91.787 392.286,96.612 390.003,96.857 389.730 C 96.936 389.643,97.579 389.279,98.286 388.922 C 98.993 388.565,100.214 387.899,101.000 387.442 C 101.786 386.985,102.686 386.487,103.000 386.334 C 103.888 385.904,106.958 384.055,107.364 383.707 C 107.564 383.535,108.152 383.216,108.672 382.999 C 109.192 382.782,109.766 382.425,109.947 382.206 C 110.129 381.988,110.794 381.638,111.424 381.430 C 112.055 381.222,112.571 380.961,112.571 380.850 C 112.571 380.740,113.182 380.418,113.929 380.136 C 114.675 379.855,115.351 379.526,115.431 379.406 C 115.511 379.287,116.282 378.911,117.143 378.571 C 118.004 378.232,118.774 377.868,118.854 377.763 C 118.935 377.658,119.579 377.279,120.286 376.922 C 120.993 376.565,122.214 375.898,123.000 375.441 C 123.786 374.984,124.750 374.443,125.143 374.239 C 125.536 374.035,126.359 373.512,126.971 373.077 C 127.584 372.642,128.249 372.286,128.448 372.286 C 128.647 372.286,128.852 372.185,128.905 372.061 C 128.957 371.937,130.029 371.236,131.286 370.502 C 132.543 369.768,133.735 369.026,133.935 368.852 C 134.135 368.679,134.724 368.359,135.243 368.142 C 135.763 367.925,136.355 367.547,136.558 367.302 C 136.761 367.057,137.049 366.857,137.198 366.857 C 137.347 366.857,138.029 366.471,138.714 366.000 C 139.399 365.529,140.088 365.143,140.245 365.143 C 140.402 365.143,140.709 364.965,140.926 364.747 C 141.144 364.530,141.828 364.079,142.446 363.744 C 143.643 363.098,143.885 362.952,146.170 361.500 C 146.973 360.989,147.778 360.571,147.958 360.571 C 148.138 360.571,148.286 360.475,148.286 360.357 C 148.286 360.239,148.896 359.824,149.643 359.435 C 150.389 359.046,151.064 358.647,151.143 358.547 C 151.221 358.447,151.700 358.153,152.206 357.894 C 153.174 357.398,155.046 356.209,155.628 355.721 C 155.817 355.563,156.456 355.207,157.048 354.931 C 157.641 354.655,158.354 354.204,158.634 353.929 C 158.914 353.654,159.291 353.429,159.473 353.429 C 159.655 353.429,160.224 353.107,160.739 352.715 C 161.254 352.322,162.005 351.875,162.409 351.722 C 162.813 351.568,163.143 351.330,163.143 351.193 C 163.143 351.056,163.721 350.705,164.429 350.413 C 165.136 350.121,165.714 349.779,165.714 349.651 C 165.714 349.524,166.164 349.205,166.714 348.942 C 167.264 348.680,167.714 348.361,167.714 348.233 C 167.714 348.105,167.848 348.000,168.012 348.000 C 168.294 348.000,171.481 346.057,172.184 345.456 C 172.364 345.303,172.568 345.235,172.638 345.305 C 172.708 345.375,172.999 345.174,173.284 344.859 C 173.569 344.544,173.956 344.286,174.143 344.286 C 174.330 344.286,174.716 344.029,175.000 343.714 C 175.284 343.400,175.641 343.143,175.792 343.143 C 175.943 343.143,176.679 342.693,177.429 342.143 C 178.178 341.593,178.934 341.143,179.110 341.143 C 179.285 341.143,179.429 341.011,179.429 340.850 C 179.429 340.689,179.718 340.444,180.071 340.305 C 180.681 340.066,187.508 335.646,188.706 334.715 C 189.015 334.475,189.626 334.120,190.063 333.926 C 190.500 333.733,190.857 333.481,190.857 333.366 C 190.857 333.251,191.275 332.944,191.786 332.683 C 192.296 332.422,192.817 332.033,192.943 331.818 C 193.068 331.604,193.312 331.429,193.485 331.429 C 193.657 331.429,194.347 330.979,195.019 330.429 C 195.690 329.879,196.314 329.429,196.405 329.429 C 196.584 329.429,197.320 328.821,198.397 327.786 C 198.765 327.432,199.170 327.143,199.298 327.143 C 199.839 327.143,207.599 319.384,207.851 318.592 C 207.954 318.266,208.160 318.000,208.310 318.000 C 208.459 318.000,208.795 317.550,209.058 317.000 C 209.320 316.450,209.624 316.000,209.733 316.000 C 209.842 316.000,210.098 315.582,210.302 315.071 C 210.506 314.561,210.989 313.437,211.376 312.574 C 212.576 309.898,212.531 303.871,211.297 301.883 C 211.093 301.554,210.700 300.675,210.424 299.929 C 210.148 299.182,209.831 298.571,209.719 298.571 C 209.607 298.571,209.283 298.057,209.000 297.429 C 208.717 296.800,208.403 296.286,208.304 296.286 C 208.205 296.286,207.892 295.894,207.609 295.414 C 207.014 294.408,206.818 294.186,203.405 290.643 C 202.004 289.189,200.776 288.000,200.676 288.000 C 200.576 288.000,200.218 287.711,199.881 287.357 C 199.047 286.482,197.559 285.379,194.929 283.685 C 194.418 283.356,194.000 282.971,194.000 282.829 C 194.000 282.687,193.826 282.571,193.614 282.571 C 193.402 282.571,192.696 282.186,192.045 281.714 C 191.395 281.243,190.788 280.857,190.697 280.857 C 190.606 280.857,189.971 280.471,189.286 280.000 C 188.601 279.529,187.922 279.143,187.779 279.143 C 187.635 279.143,187.284 278.886,187.000 278.571 C 186.716 278.257,186.361 278.000,186.211 278.000 C 186.062 278.000,185.368 277.614,184.670 277.143 C 183.971 276.671,183.302 276.286,183.182 276.286 C 183.063 276.286,182.716 276.057,182.411 275.776 C 182.106 275.496,181.375 275.040,180.786 274.763 C 180.196 274.486,179.714 274.145,179.714 274.006 C 179.714 273.867,179.425 273.662,179.071 273.552 C 178.718 273.441,177.891 272.982,177.234 272.532 C 176.577 272.082,175.918 271.714,175.769 271.714 C 175.620 271.714,175.333 271.515,175.131 271.272 C 174.929 271.028,174.206 270.575,173.525 270.264 C 172.843 269.954,172.286 269.583,172.286 269.441 C 172.286 269.298,171.996 269.091,171.643 268.980 C 171.289 268.869,170.486 268.432,169.857 268.009 C 169.229 267.586,168.489 267.157,168.214 267.057 C 167.939 266.957,167.714 266.751,167.714 266.600 C 167.714 266.448,167.425 266.234,167.071 266.123 C 166.718 266.012,165.891 265.554,165.234 265.104 C 164.577 264.654,163.973 264.286,163.891 264.286 C 163.810 264.286,163.171 263.900,162.473 263.429 C 161.774 262.957,161.081 262.571,160.931 262.571 C 160.782 262.571,160.427 262.314,160.143 262.000 C 159.858 261.686,159.524 261.429,159.399 261.429 C 159.274 261.429,158.600 261.043,157.901 260.571 C 157.203 260.100,156.560 259.714,156.473 259.714 C 156.386 259.714,155.743 259.329,155.044 258.857 C 154.346 258.386,153.632 258.000,153.459 258.000 C 153.285 258.000,153.143 257.886,153.143 257.747 C 153.143 257.608,152.725 257.278,152.214 257.014 C 151.704 256.750,150.579 256.096,149.714 255.562 C 148.850 255.028,147.725 254.370,147.214 254.100 C 146.704 253.829,146.286 253.496,146.286 253.359 C 146.286 253.221,146.157 253.189,146.000 253.286 C 145.843 253.383,145.714 253.339,145.714 253.188 C 145.714 253.037,145.353 252.787,144.911 252.633 C 144.470 252.479,143.923 252.172,143.697 251.951 C 143.471 251.731,142.809 251.326,142.226 251.053 C 141.644 250.780,141.092 250.434,141.000 250.286 C 140.908 250.137,140.356 249.791,139.774 249.517 C 139.191 249.243,138.465 248.789,138.160 248.509 C 137.856 248.229,137.454 248.000,137.267 248.000 C 137.080 248.000,136.762 247.801,136.560 247.557 C 136.358 247.314,135.643 246.864,134.971 246.558 C 134.299 246.252,133.666 245.867,133.564 245.703 C 133.463 245.539,132.877 245.203,132.261 244.957 C 131.646 244.711,131.143 244.414,131.143 244.298 C 131.143 244.182,130.629 243.855,130.000 243.571 C 129.371 243.288,128.857 242.967,128.857 242.857 C 128.857 242.748,128.343 242.426,127.714 242.143 C 127.086 241.859,126.571 241.538,126.571 241.429 C 126.571 241.319,126.057 240.998,125.429 240.714 C 124.800 240.431,124.286 240.113,124.286 240.008 C 124.286 239.902,123.643 239.526,122.857 239.171 C 122.071 238.815,121.429 238.407,121.429 238.262 C 121.429 238.118,121.253 238.000,121.039 238.000 C 120.824 238.000,120.327 237.747,119.934 237.438 C 119.541 237.129,119.138 236.957,119.038 237.057 C 118.939 237.157,118.857 237.101,118.857 236.933 C 118.857 236.765,118.504 236.485,118.071 236.310 C 117.639 236.135,116.514 235.547,115.571 235.003 C 114.629 234.459,113.279 233.735,112.571 233.395 C 111.864 233.054,111.221 232.686,111.143 232.576 C 111.064 232.466,110.389 232.145,109.643 231.864 C 108.896 231.582,108.286 231.240,108.286 231.104 C 108.286 230.968,108.143 230.857,107.969 230.857 C 107.612 230.857,102.221 228.263,102.000 227.984 C 101.921 227.886,101.246 227.574,100.500 227.292 C 99.754 227.010,99.143 226.694,99.143 226.589 C 99.143 226.484,98.500 226.167,97.714 225.885 C 96.929 225.602,96.286 225.275,96.286 225.158 C 96.286 225.040,95.739 224.702,95.071 224.406 C 94.404 224.110,93.687 223.704,93.480 223.505 C 93.272 223.306,92.966 223.143,92.800 223.143 C 92.635 223.143,91.519 222.599,90.321 221.934 C 89.123 221.269,88.046 220.755,87.929 220.791 C 87.811 220.827,87.714 220.737,87.714 220.591 C 87.714 220.444,87.425 220.234,87.071 220.123 C 86.718 220.012,85.657 219.571,84.714 219.143 C 83.771 218.714,82.679 218.265,82.286 218.143 C 81.893 218.022,81.507 217.838,81.429 217.733 C 81.253 217.500,78.372 216.571,77.824 216.571 C 77.607 216.571,77.429 216.467,77.429 216.340 C 77.429 216.212,76.368 215.872,75.071 215.584 C 73.775 215.295,72.586 214.964,72.429 214.848 C 71.290 214.005,60.005 213.481,57.857 214.171 " stroke="none" fill="#000000" fill-rule="evenodd"></path></g></svg>