<svg xmlns="http://www.w3.org/2000/svg" viewBox="0 0 50 57"><path fill-rule="evenodd" d="M2.453.074C2.02.234 1.43.711 1.16 1.121c-.058.09-.117.172-.129.184a1.003 1.003 0 00-.101.191c-.043.098-.09.176-.106.176-.015 0-.062.082-.101.18-.04.101-.086.183-.102.183s-.062.133-.105.297c-.043.164-.09.305-.106.316-.015.012-.07.286-.117.61a6.33 6.33 0 01-.129.672C-.036 4.352-.063 15.422.13 18c.035.523.062 1.027.183 3.586.036.816.083 1.492.102 1.5.024.008.04.055.04.105 0 .153.124.813.155.836.02.012.055.106.086.203.055.192.29.7.336.735a.726.726 0 01.098.152c.082.164.707.785.785.785.035 0 .086.024.117.055.067.066.41.188.528.188.046 0 .082.02.082.043 0 .05 1.007.054 1.105 0 .04-.02.281-.067.535-.106.258-.039.465-.082.465-.102 0-.015.137-.062.3-.101.165-.04.337-.094.384-.121.043-.028.168-.07.277-.102.11-.027.195-.066.195-.086 0-.02.016-.03.032-.027.02 0 .097-.023.18-.059.077-.035.195-.078.257-.093.059-.016.11-.043.11-.059s.09-.062.195-.102c.11-.043.207-.085.219-.101.011-.016.168-.106.351-.203.18-.098.34-.192.352-.203.011-.012.093-.059.183-.106.09-.043.184-.094.207-.113.137-.098.559-.348.637-.371.047-.016.086-.043.086-.063 0-.015.074-.062.164-.101.094-.043.168-.086.168-.098 0-.016.16-.11.36-.21.199-.099.37-.192.382-.204.012-.016.133-.066.27-.121.136-.055.258-.11.265-.125a1.6 1.6 0 01.239-.102c.12-.039.218-.086.218-.101 0-.016.094-.063.207-.106.114-.039.207-.082.207-.097 0-.016.082-.063.184-.102.102-.043.188-.09.188-.101 0-.016.074-.059.164-.102.09-.04.164-.086.164-.098 0-.015.078-.066.175-.117.192-.098.204-.105.633-.375.156-.101.364-.219.453-.265.09-.043.18-.102.196-.133.02-.028.054-.051.078-.051.043 0 .535-.281.57-.328a1.08 1.08 0 01.188-.113c.132-.075.261-.153.39-.23.125-.08.29-.169.364-.204.074-.035.132-.078.132-.094 0-.02.082-.07.176-.113.098-.043.207-.11.25-.149.04-.039.09-.07.11-.07a.862.862 0 00.222-.125c.102-.066.195-.12.211-.12.016 0 .05-.02.078-.04.098-.086.57-.367.61-.367.02 0 .039-.02.039-.043 0-.024.02-.031.039-.02.023.016.043.012.043-.008 0-.019.07-.07.156-.113.082-.047.172-.094.195-.113.172-.129.547-.356.586-.356.031 0 .055-.02.055-.043 0-.019.039-.054.09-.074a1.51 1.51 0 00.25-.144.923.923 0 01.191-.106c.02 0 .059-.027.09-.062a.984.984 0 01.219-.149c.09-.043.199-.117.246-.156.047-.043.11-.078.14-.078.032 0 .067-.027.079-.063.015-.035.043-.062.062-.062.035 0 .207-.105.469-.285.242-.164.379-.242.426-.242.027 0 .05-.02.05-.04 0-.023.075-.078.16-.124.168-.082.415-.235.563-.348.043-.031.14-.082.215-.11.074-.027.137-.062.137-.078 0-.02.058-.062.132-.101.203-.102.836-.512.852-.55.008-.02.035-.036.062-.036.028 0 .114-.055.192-.121.078-.063.168-.121.195-.121.027 0 .074-.04.102-.082.031-.047.07-.082.09-.082.03 0 .37-.27.566-.45.035-.03.137-.125.227-.207a3.46 3.46 0 00.285-.3c.07-.086.14-.168.21-.25a.87.87 0 00.141-.22c.028-.066.067-.12.086-.12.016 0 .07-.106.121-.235.047-.129.11-.257.137-.289.063-.074.066-1.218.008-1.261-.024-.016-.086-.16-.14-.325-.055-.16-.114-.293-.13-.293-.015 0-.062-.074-.101-.164-.043-.09-.086-.164-.102-.164-.015 0-.062-.054-.101-.125-.043-.07-.11-.16-.145-.203-.066-.074-.129-.148-.191-.222a7.1 7.1 0 00-.985-.934c-.133-.106-.265-.207-.398-.313a13.044 13.044 0 00-.746-.507.805.805 0 01-.16-.118c-.047-.039-.086-.058-.086-.035 0 .02-.012.016-.032-.008a.48.48 0 00-.164-.113c-.074-.039-.132-.082-.132-.097 0-.016-.075-.067-.168-.11-.09-.043-.165-.09-.165-.105 0-.016-.062-.063-.144-.098-.078-.039-.145-.086-.145-.105 0-.024-.02-.04-.043-.04-.027 0-.128-.054-.23-.124a1.16 1.16 0 00-.215-.122c-.02 0-.07-.035-.117-.078a1.439 1.439 0 00-.266-.168 1.239 1.239 0 01-.203-.12.708.708 0 00-.16-.102 1.057 1.057 0 01-.2-.125c-.03-.032-.081-.059-.109-.059-.027 0-.085-.031-.132-.07a1.296 1.296 0 00-.246-.153 1.157 1.157 0 01-.184-.105.751.751 0 00-.156-.102l-.332-.187a9.588 9.588 0 00-.399-.219 1.458 1.458 0 01-.226-.137 1.279 1.279 0 00-.188-.105 2.234 2.234 0 01-.207-.113 4.717 4.717 0 00-.598-.336c-.046-.012-.082-.04-.082-.055 0-.02-.082-.066-.175-.11a2.681 2.681 0 01-.512-.3c-.027-.02-.059-.027-.074-.012-.012.012-.024.004-.024-.023 0-.024-.039-.055-.082-.07a4.976 4.976 0 01-.601-.333 1.563 1.563 0 00-.207-.113 2.436 2.436 0 01-.203-.113 7.034 7.034 0 00-.579-.36 5.385 5.385 0 01-.277-.152c-.57-.324-1.18-.652-1.262-.676-.05-.015-.093-.047-.093-.066 0-.024-.02-.04-.047-.04-.024 0-.309-.128-.633-.284-.32-.157-.606-.285-.633-.285-.023 0-.05-.012-.058-.032-.008-.015-.274-.156-.59-.312-.32-.156-.59-.297-.602-.309a.65.65 0 00-.164-.082 4.144 4.144 0 01-.453-.223c-.375-.199-.895-.449-1.024-.488-.05-.012-.093-.043-.093-.062 0-.024-.02-.04-.043-.04-.024 0-.156-.05-.297-.117a7.272 7.272 0 00-.402-.167.849.849 0 01-.165-.083c-.011-.015-.156-.07-.32-.12a1.413 1.413 0 01-.32-.122C6.16.593 6.055.555 5.934.531A1.461 1.461 0 015.633.43c-.047-.032-.23-.086-.414-.125A2 2 0 014.87.207C4.758.055 2.801-.055 2.453.074m26.063 14.43a2.613 2.613 0 00-.332.09 3.406 3.406 0 01-.266.11c-.152.062-.207.1-.445.331-.243.238-.317.332-.403.516-.039.094-.086.168-.101.168-.016 0-.063.097-.102.215-.043.117-.101.25-.129.296a2.218 2.218 0 00-.125.387c-.039.168-.086.313-.101.324-.032.024-.164.797-.164.954 0 .054-.02.105-.04.113-.124.047-.148 1.273-.148 8.574 0 5.781-.012 7.309-.05 7.348-.067.066-.079 3.558-.012 3.597.023.016.043.125.043.246 0 .317.125 1.461.16 1.485.02.012.054.14.086.285.07.375.367.977.586 1.191.035.04.093.102.125.145.129.172.527.45.859.598.078.035.227.105.332.156.25.117 1.05.148 1.422.054.629-.16 1.039-.277 1.113-.316a2.12 2.12 0 01.29-.105.834.834 0 00.23-.09c.011-.016.129-.059.258-.102.128-.039.238-.086.238-.105 0-.02.058-.047.133-.063a2.03 2.03 0 00.363-.144c.125-.063.355-.176.516-.25.16-.075.336-.164.39-.203.059-.036.176-.086.258-.118.086-.027.156-.066.156-.078 0-.015.086-.062.196-.101.105-.04.214-.09.238-.11.047-.043.34-.199.558-.3a.557.557 0 00.164-.098.889.889 0 01.22-.102c.105-.039.195-.09.195-.109 0-.02.011-.031.03-.027a.892.892 0 00.231-.082c.11-.047.215-.086.235-.086a.04.04 0 00.039-.04c0-.023.101-.07.226-.109.125-.039.227-.086.227-.101 0-.016.097-.063.219-.102a.976.976 0 00.27-.125c.03-.031.073-.055.093-.055.02 0 .176-.062.348-.14.167-.078.328-.145.351-.145.024 0 .043-.015.043-.031 0-.02.086-.074.195-.125.207-.094.235-.11.578-.32.118-.075.235-.133.254-.133.024 0 .067-.027.098-.059.031-.027.121-.086.2-.125a.708.708 0 00.16-.101 1.19 1.19 0 01.187-.121c.184-.098.387-.22.602-.36a.557.557 0 01.195-.09c.027 0 .05-.02.05-.043 0-.023.051-.062.114-.09.062-.027.191-.097.285-.16a.878.878 0 01.211-.113c.023 0 .062-.031.094-.062a.695.695 0 01.199-.133c.082-.04.187-.102.23-.14.043-.04.102-.075.13-.075a.178.178 0 00.105-.05c.031-.032.12-.09.199-.134.078-.043.18-.113.227-.152.043-.039.097-.07.117-.07a.81.81 0 00.207-.117c.097-.063.215-.13.265-.145.051-.016.094-.043.094-.059 0-.015.07-.062.156-.109.086-.043.192-.11.235-.152.043-.04.101-.07.129-.07a.2.2 0 00.11-.051.966.966 0 01.194-.133c.078-.043.164-.094.188-.113.137-.102.558-.348.637-.372.046-.015.086-.043.086-.058 0-.016.07-.063.156-.11a.877.877 0 00.176-.105c.011-.012.101-.066.199-.121.383-.207.426-.234.496-.29.035-.03.133-.089.21-.128a3.68 3.68 0 00.49-.281c.097-.059.187-.11.202-.11a2.1 2.1 0 00.242-.144c.121-.078.239-.14.262-.14.024 0 .043-.02.043-.04 0-.023.066-.07.145-.105.082-.04.144-.082.144-.102 0-.016.035-.043.074-.055a1.08 1.08 0 00.297-.18c.035-.03.258-.202.496-.39.243-.184.5-.398.575-.477.218-.214.617-.675.671-.78a.484.484 0 01.079-.114.726.726 0 00.097-.152c.04-.07.082-.133.102-.133.015 0 .066-.09.105-.203.043-.114.09-.203.106-.203.015 0 .062-.114.105-.254.043-.141.094-.278.113-.305.196-.25.192-2.023-.003-2.266a1.316 1.316 0 01-.106-.261c-.039-.118-.086-.211-.105-.211-.016 0-.063-.086-.102-.184-.039-.101-.086-.183-.102-.183-.015 0-.062-.063-.109-.133a1.52 1.52 0 00-.121-.18l-.187-.219c-.352-.422-1.59-1.508-1.715-1.508a.485.485 0 01-.14-.09 4.331 4.331 0 00-.227-.171 12.637 12.637 0 01-.606-.434 1.087 1.087 0 00-.215-.137c-.086-.043-.152-.093-.152-.105 0-.016-.067-.059-.145-.102-.082-.043-.144-.09-.144-.105 0-.016-.047-.055-.102-.082-.05-.031-.203-.129-.336-.219-.101-.066-.203-.137-.304-.203-.036-.023-.176-.113-.309-.203-.121-.082-.246-.16-.371-.238a.673.673 0 01-.149-.11 1.213 1.213 0 00-.195-.12c-.097-.048-.176-.106-.176-.126 0-.02-.023-.035-.047-.035-.027 0-.136-.066-.242-.145a1.278 1.278 0 00-.222-.14c-.02 0-.645-.399-.75-.48a2.373 2.373 0 00-.196-.11.548.548 0 01-.156-.105c0-.016-.074-.06-.164-.102-.09-.04-.164-.086-.164-.102 0-.011-.082-.066-.184-.113a.96.96 0 01-.23-.152c-.027-.032-.066-.059-.086-.059a.94.94 0 01-.219-.125 1.266 1.266 0 00-.203-.12c-.016 0-.11-.056-.207-.122a.93.93 0 00-.227-.121.059.059 0 01-.054-.04c-.016-.034-.172-.132-.469-.292a.882.882 0 01-.187-.117 1.359 1.359 0 00-.227-.125 1.359 1.359 0 01-.227-.125.995.995 0 00-.187-.098 1.563 1.563 0 01-.207-.113 4.78 4.78 0 00-.516-.278 1.013 1.013 0 01-.207-.117 1.075 1.075 0 00-.203-.097.797.797 0 01-.207-.102.844.844 0 00-.2-.102c-.093-.043-.175-.093-.175-.113 0-.02-.012-.031-.027-.027-.04.008-.438-.172-.465-.211a1.076 1.076 0 00-.219-.102c-.11-.039-.195-.082-.195-.097 0-.016-.094-.063-.207-.102-.113-.039-.207-.086-.207-.098 0-.015-.082-.062-.184-.105-.105-.04-.187-.086-.187-.106 0-.015-.09-.062-.196-.105a.955.955 0 01-.25-.125.193.193 0 00-.109-.055c-.031 0-.102-.039-.164-.086-.059-.047-.106-.07-.11-.05 0 .02-.011.011-.03-.012a.491.491 0 00-.173-.113 5.008 5.008 0 01-.351-.188 5.35 5.35 0 00-.39-.207 1.397 1.397 0 01-.239-.14.615.615 0 00-.2-.106c-.077-.027-.144-.063-.144-.078 0-.016-.082-.059-.183-.098-.102-.039-.188-.086-.188-.105 0-.024-.012-.035-.031-.032a.892.892 0 01-.23-.082 1.818 1.818 0 00-.239-.09c-.02 0-.035-.015-.035-.038 0-.02-.102-.067-.227-.106-.125-.035-.226-.078-.226-.094 0-.015-.121-.062-.27-.105-.148-.04-.27-.09-.27-.106 0-.02-.144-.062-.32-.101-.175-.04-.328-.082-.34-.098-.023-.035-.68-.164-.816-.164-.05 0-.094-.016-.094-.039 0-.02-.18-.047-.402-.059-.219-.015-.476-.03-.566-.039-.09-.007-.258 0-.371.02M2.414 30.527c-.113.035-.215.078-.227.098a.912.912 0 01-.214.102c-.106.039-.203.097-.215.128-.012.032-.047.055-.07.055-.13 0-.77.762-.973 1.152-.04.07-.082.141-.094.153a.975.975 0 00-.105.222c-.043.114-.09.215-.11.227-.039.023-.23.734-.32 1.18-.137.703-.063 19.343.078 19.484.023.02.04.086.04.149 0 .171.171 1.113.206 1.136.016.012.063.13.102.266.039.133.086.25.101.262.016.011.063.105.11.203.043.101.101.21.132.238a.76.76 0 01.094.137c.094.168.504.605.57.605.024 0 .063.031.083.07a.46.46 0 00.187.13c.082.035.149.074.149.09 0 .015.097.062.218.097.117.039.227.086.239.102.156.226 2.261.226 2.433 0 .012-.016.168-.06.352-.098.18-.04.347-.086.37-.106.024-.02.165-.066.313-.101.145-.04.278-.086.29-.102.011-.015.152-.07.32-.12.164-.052.297-.106.297-.122s.101-.062.226-.102c.125-.039.23-.085.23-.109 0-.02.02-.039.044-.039.046 0 .746-.324.78-.363.012-.012.106-.063.208-.114.133-.07.262-.14.39-.21.098-.055.192-.11.29-.16.128-.06.574-.325.632-.376a.803.803 0 01.188-.097.574.574 0 00.183-.114.66.66 0 01.215-.113c.09-.027.164-.066.164-.082 0-.015.09-.062.2-.101.105-.04.203-.086.214-.106.012-.016.125-.07.25-.117a1.09 1.09 0 00.246-.117c.012-.012.106-.067.207-.117.133-.067.262-.137.391-.211.113-.067.254-.145.313-.172.054-.032.175-.106.261-.168a.764.764 0 01.215-.11c.028 0 .059-.015.067-.035.007-.015.16-.117.343-.218.184-.106.356-.211.383-.239a.96.96 0 01.188-.101.504.504 0 00.191-.118c.031-.035.07-.062.094-.062.02 0 .12-.059.219-.125a.864.864 0 01.222-.121c.02 0 .067-.027.098-.055.031-.031.129-.097.219-.144.171-.094.207-.114.539-.32a.973.973 0 01.258-.133c.027 0 .046-.012.046-.032 0-.015.09-.074.196-.129.11-.054.207-.113.218-.129.012-.011.079-.054.153-.093.14-.07.41-.239.496-.309a1.17 1.17 0 01.203-.113.988.988 0 00.23-.14c.04-.04.094-.071.122-.071.027 0 .109-.047.183-.106.074-.054.184-.117.242-.14.059-.02.106-.055.106-.074 0-.02.082-.07.183-.11.106-.043.188-.094.188-.11 0-.019.066-.066.144-.1.079-.04.145-.083.145-.102 0-.02.02-.035.043-.035.039 0 .5-.274.602-.36.027-.023.058-.031.066-.023.012.011.055-.02.094-.063.043-.047.097-.082.125-.082.027 0 .082-.035.125-.082.039-.043.09-.082.113-.082.02 0 .129-.062.234-.14.11-.079.22-.145.246-.145.024 0 .043-.02.043-.04 0-.023.043-.058.094-.077.09-.035 1.074-.664 1.25-.797.043-.035.133-.086.195-.113.063-.028.114-.063.114-.082 0-.016.062-.059.136-.094a.542.542 0 00.168-.125c.016-.031.051-.055.079-.055.023 0 .125-.066.218-.144a1.03 1.03 0 01.203-.141c.024 0 .133-.086.286-.234.054-.051.113-.094.132-.094.078 0 1.2-1.106 1.235-1.219.015-.047.047-.082.066-.082.024 0 .07-.066.11-.144.039-.079.082-.141.097-.141.016 0 .051-.059.082-.133.051-.12.102-.238.156-.355.172-.383.165-1.242-.011-1.524a2.03 2.03 0 01-.13-.281c-.038-.105-.085-.191-.1-.191-.016 0-.063-.075-.102-.164-.043-.09-.086-.165-.102-.165-.015 0-.058-.054-.101-.12-.086-.145-.114-.176-.606-.68a4.332 4.332 0 00-.394-.38c-.016 0-.067-.038-.118-.09-.12-.124-.336-.284-.714-.523-.075-.046-.133-.101-.133-.124 0-.02-.028-.036-.059-.036a.757.757 0 01-.226-.12 1.16 1.16 0 00-.196-.126c-.011 0-.101-.054-.203-.12a.866.866 0 00-.219-.122c-.02 0-.07-.035-.109-.082-.043-.043-.094-.082-.117-.082-.02 0-.121-.055-.223-.121a.947.947 0 00-.215-.121.325.325 0 01-.109-.074 1.226 1.226 0 00-.234-.145c-.086-.039-.157-.086-.157-.11 0-.019-.043-.046-.093-.062a1.587 1.587 0 01-.266-.144.748.748 0 00-.211-.118c-.02 0-.062-.027-.094-.062a.784.784 0 00-.23-.145c-.098-.043-.18-.097-.18-.117 0-.02-.043-.05-.094-.066a1.56 1.56 0 01-.257-.137 1.41 1.41 0 00-.239-.137c-.039-.015-.07-.043-.07-.066 0-.02-.043-.05-.094-.066a1.587 1.587 0 01-.265-.145 1.071 1.071 0 00-.192-.117c-.012 0-.105-.055-.207-.125a.934.934 0 00-.223-.121c-.023 0-.074-.035-.113-.082-.043-.043-.09-.078-.11-.078-.015 0-.112-.059-.214-.125a1.413 1.413 0 00-.207-.121c-.012 0-.105-.055-.207-.122-.102-.07-.203-.125-.23-.125-.024 0-.044-.015-.044-.035 0-.02-.062-.066-.136-.105a5.685 5.685 0 01-.36-.207 8.026 8.026 0 00-.363-.207c-.07-.04-.133-.086-.133-.106 0-.02-.02-.023-.043-.011-.02.015-.039.007-.039-.012 0-.024-.05-.059-.117-.078a.67.67 0 01-.176-.098 1.01 1.01 0 00-.21-.129.7.7 0 01-.18-.11.52.52 0 00-.176-.109 1.364 1.364 0 01-.234-.144c-.043-.04-.102-.07-.13-.07-.027 0-.07-.032-.1-.067a.791.791 0 00-.231-.14.76.76 0 01-.204-.122c-.011-.023-.097-.074-.187-.109s-.16-.074-.16-.094c0-.015-.074-.062-.168-.101-.09-.04-.164-.086-.164-.102 0-.015-.074-.062-.164-.101-.09-.043-.164-.086-.164-.102s-.075-.062-.168-.102c-.09-.042-.164-.085-.164-.101s-.094-.07-.207-.121c-.114-.05-.207-.11-.207-.13 0-.019-.024-.034-.055-.034a.386.386 0 01-.16-.082c-.059-.043-.117-.067-.13-.055-.015.016-.027.008-.027-.016 0-.023-.05-.066-.113-.09a3.723 3.723 0 01-.363-.187 7.57 7.57 0 00-.434-.226 1.154 1.154 0 01-.203-.118.889.889 0 00-.219-.101c-.109-.043-.195-.09-.195-.11 0-.02-.02-.035-.047-.035-.05 0-.832-.37-.863-.41a1.213 1.213 0 00-.215-.098c-.11-.039-.195-.086-.195-.101 0-.016-.094-.059-.207-.098-.114-.043-.207-.09-.207-.105 0-.016-.078-.067-.176-.106a1.199 1.199 0 01-.23-.129c-.032-.03-.075-.054-.098-.054-.024 0-.188-.075-.36-.172-.171-.094-.328-.168-.343-.16-.02.004-.032-.008-.032-.032 0-.02-.043-.05-.093-.066a5.523 5.523 0 01-.34-.137 3.827 3.827 0 00-.352-.144.306.306 0 01-.125-.059c-.023-.031-.441-.164-.52-.164-.03 0-.058-.016-.058-.035 0-.016-.152-.066-.34-.106a2.759 2.759 0 01-.382-.105c-.165-.121-1.797-.195-2.106-.098"/></svg>